<?xml version="1.0" encoding="UTF-8" standalone="no"?> <svg xmlns="http://www.w3.org/2000/svg" xmlns:xlink="http://www.w3.org/1999/xlink" xmlns:serif="http://www.serif.com/" width="100%" height="100%" viewBox="0 0 156 54" xml:space="preserve" style="fill-rule:evenodd;clip-rule:evenodd;stroke-linejoin:round;stroke-miterlimit:2;"> <g> <path d="M0.346,44.392c-0.176,0 -0.264,-0.132 -0.264,-0.395c1.647,-4.413 4.15,-9.594 7.508,-15.543c3.008,-5.027 6.608,-10.164 10.801,-15.411c0.659,-2.635 1.153,-4.94 1.482,-6.916c0.154,-0.241 0.308,-0.362 0.461,-0.362c0.352,0 0.758,0.571 1.219,1.713l-0.527,2.7l0.527,-0.56c5.159,-5.357 9.593,-8.035 13.303,-8.035c2.503,0 4.259,1.273 5.269,3.82c0.176,0.878 0.263,1.625 0.263,2.239c0,6.235 -5.18,13.04 -15.542,20.417c-4.018,2.458 -7.311,3.688 -9.879,3.688c-1.361,0 -2.503,-0.571 -3.425,-1.713c-5.4,9.572 -9.132,14.358 -11.196,14.358Zm16.201,-13.831c3.425,0 8.738,-3.424 15.938,-10.274c3.952,-4.654 5.928,-8.561 5.928,-11.723l0,-0.79c0,-2.349 -0.966,-3.93 -2.898,-4.742c-0.351,-0.176 -0.922,-0.263 -1.712,-0.263c-3.447,0 -8.145,3.644 -14.094,10.932c-1.757,4.347 -4.04,9.045 -6.85,14.094c0.505,1.844 1.427,2.766 2.766,2.766l0.922,0Zm-5.005,-5.532c0.922,0 1.493,-0.351 1.712,-1.054c0,-0.131 0.791,-1.756 2.371,-4.873l-4.083,5.795l0,0.132Zm-7.771,14.884c4.741,-7.332 7.112,-11.327 7.112,-11.986c0,-0.395 -0.043,-0.834 -0.131,-1.317c0.088,-0.154 0.131,-0.33 0.131,-0.527c-2.392,3.578 -4.763,8.188 -7.112,13.83Z" style="fill:#060102;fill-opacity:0.84;fill-rule:nonzero;"></path> <path d="M40.092,24.305l0.922,0c1.405,0.175 2.108,0.878 2.108,2.107l0,0.922c0,0.9 -0.571,2.13 -1.713,3.688c0,0.088 0.044,0.132 0.132,0.132c0.483,0.088 0.834,0.132 1.054,0.132c1.493,0 3.688,-1.186 6.586,-3.557l0.922,-0.131l0.131,0.263l0,0.132c-3.117,2.898 -5.927,4.347 -8.43,4.347l-1.053,0l-0.659,-0.132c-1.734,1.822 -3.49,2.876 -5.269,3.161l-0.658,0c-1.01,0 -1.625,-0.922 -1.844,-2.766c0,-2.547 1.536,-4.786 4.61,-6.718c0.307,-0.022 0.746,-0.329 1.317,-0.922c0.637,-0.439 1.251,-0.658 1.844,-0.658Zm-0.527,1.053c0,0.154 -0.175,0.505 -0.527,1.054l-0.131,0.791c0,1.141 0.439,2.195 1.317,3.161c0.702,-1.12 1.054,-2.13 1.054,-3.03c0,-1.317 -0.571,-1.976 -1.713,-1.976Zm-5.269,6.586l0,0.527c0,0.747 0.352,1.361 1.054,1.844c0.791,0 2.02,-0.878 3.688,-2.634c-1.317,-0.966 -1.975,-2.195 -1.975,-3.688l0,-1.054c-1.844,1.537 -2.767,3.205 -2.767,5.005Z" style="fill:#c4c4c4;fill-rule:nonzero;"></path> <path d="M51.552,40.934l-0.264,0c-0.614,0 -0.999,-0.263 -1.152,-0.79l-0.066,-0.461c0,-1.625 1.537,-4.522 4.61,-8.694c1.493,-2.041 2.382,-3.435 2.667,-4.182c0,-0.636 -0.658,-1.701 -1.975,-3.194c-0.418,0.439 -2.174,1.965 -5.269,4.577c-0.966,0.813 -1.735,1.219 -2.305,1.219c-0.198,-0.044 -0.297,-0.099 -0.297,-0.165l0,-0.164c0.176,-0.22 0.917,-0.879 2.223,-1.976c1.306,-1.098 2.42,-2.091 3.342,-2.98c0.922,-0.89 1.383,-1.389 1.383,-1.499c-1.119,-1.185 -1.679,-2.085 -1.679,-2.7c0,-0.856 0.637,-1.603 1.91,-2.239c0.746,-0.308 1.46,-0.461 2.14,-0.461c0.681,0 1.076,0.329 1.186,0.988c0,0.834 -0.538,2.118 -1.614,3.852c1.866,1.932 2.799,3.271 2.799,4.018c0,0.593 -1.339,2.722 -4.017,6.388c-1.998,2.81 -2.997,4.841 -2.997,6.092c0,0.571 0.319,0.856 0.955,0.856c2.327,0 9.111,-4.127 20.351,-12.381c0.219,-0.132 0.406,-0.198 0.56,-0.198c0.197,0 0.296,0.066 0.296,0.198c0,0.154 -0.099,0.395 -0.296,0.724c-0.11,0.198 -0.648,0.648 -1.614,1.35c-5.554,3.974 -10.329,7.058 -14.324,9.254c-3.184,1.712 -5.368,2.568 -6.553,2.568Zm3.885,-19.955c0.461,-0.812 0.714,-1.504 0.758,-2.075c-0.066,-0.439 -0.22,-0.658 -0.461,-0.658c-0.549,0 -0.933,0.285 -1.153,0.856c0,0.593 0.286,1.218 0.856,1.877Z" style="fill:#c4c4c4;fill-rule:nonzero;"></path> <path d="M85.799,9.75c1.383,-1.471 2.305,-2.207 2.766,-2.207c0.79,0 1.185,0.132 1.185,0.396l0,0.263c0,0.307 -0.439,0.593 -1.317,0.856l-0.659,-0.132c-0.241,0.242 -0.461,0.483 -0.658,0.725l-3.096,4.182l0.132,0c2.854,-0.088 5.62,-0.22 8.298,-0.395l0.132,0.263l0,0.132c0,0.703 -3.117,1.054 -9.352,1.054c-7.069,9.879 -11.152,16.102 -12.25,18.671c-0.219,0.527 -0.4,1.268 -0.543,2.223c-0.143,0.955 0.516,1.218 1.976,0.79c1.46,-0.428 3.836,-1.987 7.129,-4.676c3.293,-2.689 5.291,-4.242 5.993,-4.66l0.659,0c0.175,0.022 0.263,0.11 0.263,0.264c-1.075,1.01 -3.567,3.068 -7.475,6.174c-3.908,3.107 -6.822,4.621 -8.743,4.545c-1.921,-0.077 -2.113,-1.784 -0.576,-5.121c1.603,-3.249 5.027,-8.485 10.274,-15.708c0,-0.153 0.527,-0.944 1.581,-2.37l-2.766,0c-5.796,0 -8.694,-0.308 -8.694,-0.923l0,-0.131c0,-0.308 0.483,-0.527 1.449,-0.659c1.8,0.351 3.82,0.527 6.059,0.527l4.742,0c0.944,-1.273 2.108,-2.634 3.491,-4.083Z" style="fill:#c4c4c4;fill-rule:nonzero;"></path> <path d="M69.597,53.349l-0.395,0c-0.351,-0.176 -0.527,-0.439 -0.527,-0.791c0.439,-2.129 2.678,-6.168 6.718,-12.118c-0.812,0 -1.295,-0.219 -1.449,-0.658l0,-0.527c0,-0.593 1.317,-1.383 3.951,-2.371c9.616,-13.875 16.026,-20.812 19.231,-20.812l0.264,0.395c-0.022,0.264 -0.593,0.571 -1.712,0.922c-2.481,2.042 -5.105,4.995 -7.871,8.859c-3.424,3.973 -6.201,7.519 -8.331,10.636l0,0.132c0.681,0 1.339,0.307 1.976,0.922c3.337,-1.779 6.981,-4.062 10.933,-6.85c1.822,-1.58 3.139,-2.371 3.951,-2.371l0.132,0.264l0,0.131c-4.83,3.952 -9.703,7.157 -14.621,9.616c0.176,0.373 0.307,0.856 0.395,1.449c0,3.073 -3.073,6.981 -9.22,11.723c-1.603,0.966 -2.744,1.449 -3.425,1.449Zm8.43,-14.094c0.791,-0.264 1.273,-0.395 1.449,-0.395l0,-0.132c-0.154,-0.351 -0.461,-0.527 -0.922,-0.527l-0.659,0.922l0,0.132l0.132,0Zm-1.976,0c0.132,0 0.352,-0.264 0.659,-0.791l0,-0.131c-0.395,0 -0.702,0.219 -0.922,0.658c0.022,0.176 0.11,0.264 0.263,0.264Zm-5.4,12.908c1.339,-0.614 3.227,-2.107 5.664,-4.478c2.634,-2.788 3.951,-5.115 3.951,-6.981c0,-0.395 -0.087,-0.791 -0.263,-1.186c-2.108,0.681 -3.161,1.076 -3.161,1.186c-4.127,6.278 -6.191,10.098 -6.191,11.459Z" style="fill:#c4c4c4;fill-rule:nonzero;"></path> <path d="M101.967,24.305l0.922,0c1.405,0.175 2.108,0.878 2.108,2.107l0,0.922c0,0.9 -0.571,2.13 -1.713,3.688c0,0.088 0.044,0.132 0.132,0.132c0.483,0.088 0.834,0.132 1.054,0.132c1.493,0 3.688,-1.186 6.586,-3.557l0.922,-0.131l0.131,0.263l0,0.132c-3.117,2.898 -5.927,4.347 -8.43,4.347l-1.053,0l-0.659,-0.132c-1.734,1.822 -3.49,2.876 -5.269,3.161l-0.658,0c-1.01,0 -1.625,-0.922 -1.844,-2.766c0,-2.547 1.536,-4.786 4.61,-6.718c0.307,-0.022 0.746,-0.329 1.317,-0.922c0.637,-0.439 1.251,-0.658 1.844,-0.658Zm-0.527,1.053c0,0.154 -0.175,0.505 -0.527,1.054l-0.131,0.791c0,1.141 0.439,2.195 1.317,3.161c0.702,-1.12 1.054,-2.13 1.054,-3.03c0,-1.317 -0.571,-1.976 -1.713,-1.976Zm-5.269,6.586l0,0.527c0,0.747 0.352,1.361 1.054,1.844c0.791,0 2.02,-0.878 3.688,-2.634c-1.317,-0.966 -1.975,-2.195 -1.975,-3.688l0,-1.054c-1.844,1.537 -2.767,3.205 -2.767,5.005Z" style="fill:#c4c4c4;fill-rule:nonzero;"></path> <path d="M138.75,0.101l0.79,0c0.483,0 0.834,0.22 1.054,0.659l0,0.79c-0.527,3.469 -8.606,11.196 -24.237,23.183c-1.8,1.361 -3.424,3.161 -4.873,5.4c-2.898,4.347 -4.347,7.289 -4.347,8.825c0.088,0.352 0.264,0.527 0.527,0.527c3.227,-1.58 9.462,-5.839 18.704,-12.776l0.79,0c0.176,0.022 0.264,0.109 0.264,0.263c-2.371,2.239 -6.718,5.444 -13.04,9.615c-3.974,2.635 -6.433,3.952 -7.377,3.952l-0.658,0c-0.483,0 -0.834,-0.219 -1.054,-0.659l0,-0.658c0,-1.581 1.723,-5.159 5.17,-10.735c1.405,-2.152 2.503,-3.82 3.293,-5.006c3.952,-5.444 8.199,-10.647 12.744,-15.608c5.576,-5.181 9.659,-7.772 12.25,-7.772Zm-23.183,23.71l0.132,0c15.367,-11.679 23.051,-19.056 23.051,-22.129c-0.088,-0.351 -0.352,-0.527 -0.791,-0.527c-5.729,1.603 -13.194,9.155 -22.392,22.656Z" style="fill:#c4c4c4;fill-rule:nonzero;"></path> <path d="M130.945,22.033l-0.263,-0.396c-0.351,-0.614 -0.11,-1.13 0.724,-1.547c0.505,-0.242 0.895,-0.341 1.169,-0.297c0.275,0.044 0.511,0.275 0.708,0.692c-0.153,1.251 -0.933,1.767 -2.338,1.548Zm-5.466,14.917c-2.656,0.768 -3.425,-0.944 -2.305,-5.137c0.307,-1.076 0.834,-2.163 1.581,-3.26c1.602,-2.745 2.908,-4.193 3.918,-4.347c0.22,0 0.692,0.055 1.416,0.165c-2.876,3.534 -4.528,6.41 -4.956,8.627c-0.428,2.217 0.115,3.074 1.63,2.569c2.81,-0.9 7.475,-3.732 13.995,-8.496c0.396,-0.351 0.879,-0.527 1.449,-0.527c0.088,0 0.132,0.033 0.132,0.099c0,0.066 -0.055,0.164 -0.165,0.296c-1.339,1.229 -2.634,2.305 -3.885,3.227c-4.984,3.513 -9.254,5.774 -12.81,6.784Z" style="fill:#c4c4c4;fill-rule:nonzero;"></path> <path d="M145.138,24.305l0.922,0c1.405,0.175 2.108,0.878 2.108,2.107l0,0.922c0,0.9 -0.571,2.13 -1.713,3.688c0,0.088 0.044,0.132 0.132,0.132c0.483,0.088 0.834,0.132 1.054,0.132c1.493,0 3.688,-1.186 6.586,-3.557l0.922,-0.131l0.131,0.263l0,0.132c-3.117,2.898 -5.927,4.347 -8.43,4.347l-1.053,0l-0.659,-0.132c-1.734,1.822 -3.491,2.876 -5.269,3.161l-0.658,0c-1.01,0 -1.625,-0.922 -1.844,-2.766c0,-2.547 1.536,-4.786 4.61,-6.718c0.307,-0.022 0.746,-0.329 1.317,-0.922c0.637,-0.439 1.251,-0.658 1.844,-0.658Zm-0.527,1.053c0,0.154 -0.175,0.505 -0.527,1.054l-0.131,0.791c0,1.141 0.439,2.195 1.317,3.161c0.702,-1.12 1.054,-2.13 1.054,-3.03c0,-1.317 -0.571,-1.976 -1.713,-1.976Zm-5.269,6.586l0,0.527c0,0.747 0.352,1.361 1.054,1.844c0.79,0 2.02,-0.878 3.688,-2.634c-1.317,-0.966 -1.976,-2.195 -1.976,-3.688l0,-1.054c-1.844,1.537 -2.766,3.205 -2.766,5.005Z" style="fill:#c4c4c4;fill-rule:nonzero;"></path> </g> </svg> 