<?xml version="1.0" encoding="utf-8"?>
<svg width="2476" height="864" viewBox="0 0 2476 864" fill="none" xmlns="http://www.w3.org/2000/svg">
  <path d="M -545.748 754.831 C -496.663 653.695 -430.256 590.39 -226.16 619.459 C -22.065 648.527 317.285 425.454 220.615 265.979 C 123.948 106.505 492.049 82.249 689.181 115.056 C 886.312 147.863 1138.617 94.58 1138.617 47.591 C 1138.617 0.603 934.013 76.662 1093.387 144.087 C 1207.266 192.263 1190.428 127.724 1165.919 122.27 C 1143.699 117.326 1141.397 157.322 1170.42 160.557 C 1304.975 175.551 1722.748 53.224 1509.059 241.839 C 1413.52 326.167 1339.99 418.887 1498.295 398.216 C 1629.62 381.069 1915.258 352.523 1926.233 311.064" stroke-opacity="0.6" style="stroke: rgb(238, 214, 211); stroke-width: 3px;" transform="matrix(-0.999284, -0.03783, 0.03783, -0.999284, 1365.088352, 813.69924)"/>
</svg>